<svg width="25" height="26" viewBox="0 0 25 26" fill="none" xmlns="http://www.w3.org/2000/svg">
<path d="M7.50223 25.5C6.81453 25.5 6.22602 25.2554 5.73671 24.7663C5.24656 24.2763 5.00149 23.6875 5.00149 23C5.00149 22.3125 5.24656 21.7237 5.73671 21.2337C6.22602 20.7446 6.81453 20.5 7.50223 20.5C8.18994 20.5 8.77845 20.7446 9.26776 21.2337C9.7579 21.7237 10.003 22.3125 10.003 23C10.003 23.6875 9.7579 24.2763 9.26776 24.7663C8.77845 25.2554 8.18994 25.5 7.50223 25.5ZM20.006 25.5C19.3183 25.5 18.7297 25.2554 18.2404 24.7663C17.7503 24.2763 17.5052 23.6875 17.5052 23C17.5052 22.3125 17.7503 21.7237 18.2404 21.2337C18.7297 20.7446 19.3183 20.5 20.006 20.5C20.6937 20.5 21.2826 20.7446 21.7727 21.2337C22.262 21.7237 22.5067 22.3125 22.5067 23C22.5067 23.6875 22.262 24.2763 21.7727 24.7663C21.2826 25.2554 20.6937 25.5 20.006 25.5ZM7.50223 19.25C6.56445 19.25 5.85591 18.8383 5.3766 18.015C4.89729 17.1925 4.87645 16.375 5.31408 15.5625L7.00208 12.5L2.50074 3H1.21911C0.864841 3 0.573087 2.88 0.343852 2.64C0.114617 2.40083 0 2.10417 0 1.75C0 1.39583 0.120036 1.09875 0.360107 0.85875C0.599345 0.619583 0.8961 0.5 1.25037 0.5H3.28223C3.51146 0.5 3.73028 0.5625 3.93867 0.6875C4.14707 0.8125 4.30336 0.989583 4.40756 1.21875L5.25156 3H23.6946C24.2572 3 24.6428 3.20833 24.8511 3.625C25.0595 4.04167 25.0491 4.47917 24.8199 4.9375L20.3811 12.9375C20.1518 13.3542 19.8497 13.6771 19.4745 13.9062C19.0994 14.1354 18.6722 14.25 18.1929 14.25H8.87764L7.50223 16.75H21.2876C21.6419 16.75 21.9336 16.8696 22.1628 17.1087C22.3921 17.3487 22.5067 17.6458 22.5067 18C22.5067 18.3542 22.3867 18.6508 22.1466 18.89C21.9074 19.13 21.6106 19.25 21.2563 19.25H7.50223Z" fill="black"/>
</svg>
