<svg width="35" height="45" viewBox="0 0 35 45" fill="none" xmlns="http://www.w3.org/2000/svg">
<path d="M17.6215 31.1667H17.6423M17.6215 24.9167H17.6423M13.4548 12.4167H13.4757M21.7882 12.4167H21.809M17.6215 16.5833H17.6423M17.6215 2C19.8419 1.9998 22.0044 2.70915 23.7933 4.02455C25.5822 5.33995 26.9039 7.19257 27.5657 9.31212C28.2275 11.4317 28.1946 13.7072 27.472 15.8068C26.7493 17.9064 25.3747 19.7201 23.5486 20.9833L23.8548 21.7521L27.5111 20.0792C29.5298 19.1563 31.9277 20.0125 32.8673 21.9917C33.2923 22.8908 33.3594 23.9179 33.0549 24.8646C32.7504 25.8113 32.0972 26.6068 31.2277 27.0896L30.9194 27.2479L25.9548 29.5167V33.725L28.9257 36.6937L29.1632 36.9542C29.8233 37.7362 30.1656 38.7376 30.1225 39.7601C30.0793 40.7826 29.6538 41.7516 28.9301 42.4753C28.2065 43.199 27.2375 43.6245 26.215 43.6676C25.1925 43.7108 24.191 43.3684 23.409 42.7083L23.1486 42.4708L18.8173 38.1375L18.5798 37.8792C18.4575 37.7344 18.3454 37.5812 18.2444 37.4208H16.9965C16.8986 37.5771 16.7861 37.7333 16.6632 37.8792L16.4236 38.1396L12.0902 42.4708C11.3465 43.2179 10.3426 43.6484 9.28875 43.6722C8.23485 43.6961 7.21257 43.3114 6.43582 42.5987C5.65907 41.886 5.18804 40.9005 5.1213 39.8485C5.05456 38.7964 5.39728 37.7593 6.07774 36.9542L6.31524 36.6937L9.28815 33.7229V29.5167L4.32357 27.2458L4.01524 27.0896C3.1458 26.6068 2.49258 25.8113 2.1881 24.8646C1.88361 23.9179 1.95066 22.8908 2.37565 21.9917C3.2694 20.1125 5.47774 19.2458 7.42565 19.9542L7.7319 20.0792L11.3882 21.7521L11.6944 20.9833C10.3721 20.0683 9.27965 18.8595 8.50256 17.4517C7.72547 16.0439 7.28485 14.4753 7.21524 12.8687V12.4167C7.21524 9.65399 8.3127 7.00447 10.2662 5.05097C12.2197 3.09747 14.8692 2 17.6319 2H17.6215Z" stroke="black" stroke-width="2.5" stroke-linecap="round" stroke-linejoin="round"/>
</svg>
