<svg width="188" height="34" viewBox="0 0 188 34" fill="none" xmlns="http://www.w3.org/2000/svg">
<path d="M22.3036 13.5H20.19C20.065 12.892 19.8462 12.358 19.5337 11.8977C19.2269 11.4375 18.8519 11.0511 18.4087 10.7386C17.9712 10.4205 17.4854 10.1818 16.9513 10.0227C16.4173 9.86364 15.8604 9.78409 15.2809 9.78409C14.2241 9.78409 13.2667 10.0511 12.4087 10.5852C11.5565 11.1193 10.8775 11.9062 10.3718 12.946C9.8718 13.9858 9.6218 15.2614 9.6218 16.7727C9.6218 18.2841 9.8718 19.5597 10.3718 20.5994C10.8775 21.6392 11.5565 22.4261 12.4087 22.9602C13.2667 23.4943 14.2241 23.7614 15.2809 23.7614C15.8604 23.7614 16.4173 23.6818 16.9513 23.5227C17.4854 23.3636 17.9712 23.1278 18.4087 22.8153C18.8519 22.4972 19.2269 22.108 19.5337 21.6477C19.8462 21.1818 20.065 20.6477 20.19 20.0455H22.3036C22.1445 20.9375 21.8548 21.7358 21.4343 22.4403C21.0139 23.1449 20.4911 23.7443 19.8661 24.2386C19.2411 24.7273 18.5394 25.0994 17.761 25.3551C16.9883 25.6108 16.1616 25.7386 15.2809 25.7386C13.7923 25.7386 12.4684 25.375 11.3093 24.6477C10.1502 23.9205 9.23828 22.8864 8.57351 21.5455C7.90874 20.2045 7.57635 18.6136 7.57635 16.7727C7.57635 14.9318 7.90874 13.3409 8.57351 12C9.23828 10.6591 10.1502 9.625 11.3093 8.89773C12.4684 8.17045 13.7923 7.80682 15.2809 7.80682C16.1616 7.80682 16.9883 7.93466 17.761 8.19034C18.5394 8.44602 19.2411 8.82102 19.8661 9.31534C20.4911 9.80398 21.0139 10.4006 21.4343 11.1051C21.8548 11.804 22.1445 12.6023 22.3036 13.5ZM40.4464 16.7727C40.4464 18.6136 40.114 20.2045 39.4492 21.5455C38.7844 22.8864 37.8725 23.9205 36.7134 24.6477C35.5543 25.375 34.2305 25.7386 32.7418 25.7386C31.2532 25.7386 29.9293 25.375 28.7702 24.6477C27.6112 23.9205 26.6992 22.8864 26.0344 21.5455C25.3697 20.2045 25.0373 18.6136 25.0373 16.7727C25.0373 14.9318 25.3697 13.3409 26.0344 12C26.6992 10.6591 27.6112 9.625 28.7702 8.89773C29.9293 8.17045 31.2532 7.80682 32.7418 7.80682C34.2305 7.80682 35.5543 8.17045 36.7134 8.89773C37.8725 9.625 38.7844 10.6591 39.4492 12C40.114 13.3409 40.4464 14.9318 40.4464 16.7727ZM38.4009 16.7727C38.4009 15.2614 38.1481 13.9858 37.6424 12.946C37.1424 11.9062 36.4634 11.1193 35.6055 10.5852C34.7532 10.0511 33.7987 9.78409 32.7418 9.78409C31.685 9.78409 30.7276 10.0511 29.8697 10.5852C29.0174 11.1193 28.3384 11.9062 27.8327 12.946C27.3327 13.9858 27.0827 15.2614 27.0827 16.7727C27.0827 18.2841 27.3327 19.5597 27.8327 20.5994C28.3384 21.6392 29.0174 22.4261 29.8697 22.9602C30.7276 23.4943 31.685 23.7614 32.7418 23.7614C33.7987 23.7614 34.7532 23.4943 35.6055 22.9602C36.4634 22.4261 37.1424 21.6392 37.6424 20.5994C38.1481 19.5597 38.4009 18.2841 38.4009 16.7727ZM57.8413 8.04545V25.5H55.7958L46.2844 11.7955H46.114V25.5H44.0004V8.04545H46.0458L55.5913 21.7841H55.7617V8.04545H57.8413ZM61.1161 9.92045V8.04545H74.207V9.92045H68.7184V25.5H66.6048V9.92045H61.1161ZM76.146 25.5H73.93L80.3391 8.04545H82.521L88.93 25.5H86.7141L81.4982 10.8068H81.3619L76.146 25.5ZM76.9641 18.6818H85.896V20.5568H76.9641V18.6818ZM104.874 13.5H102.76C102.635 12.892 102.417 12.358 102.104 11.8977C101.797 11.4375 101.422 11.0511 100.979 10.7386C100.542 10.4205 100.056 10.1818 99.5217 10.0227C98.9876 9.86364 98.4308 9.78409 97.8512 9.78409C96.7944 9.78409 95.837 10.0511 94.979 10.5852C94.1268 11.1193 93.4478 11.9062 92.9421 12.946C92.4421 13.9858 92.1921 15.2614 92.1921 16.7727C92.1921 18.2841 92.4421 19.5597 92.9421 20.5994C93.4478 21.6392 94.1268 22.4261 94.979 22.9602C95.837 23.4943 96.7944 23.7614 97.8512 23.7614C98.4308 23.7614 98.9876 23.6818 99.5217 23.5227C100.056 23.3636 100.542 23.1278 100.979 22.8153C101.422 22.4972 101.797 22.108 102.104 21.6477C102.417 21.1818 102.635 20.6477 102.76 20.0455H104.874C104.715 20.9375 104.425 21.7358 104.005 22.4403C103.584 23.1449 103.061 23.7443 102.436 24.2386C101.811 24.7273 101.11 25.0994 100.331 25.3551C99.5586 25.6108 98.7319 25.7386 97.8512 25.7386C96.3626 25.7386 95.0387 25.375 93.8796 24.6477C92.7205 23.9205 91.8086 22.8864 91.1438 21.5455C90.479 20.2045 90.1467 18.6136 90.1467 16.7727C90.1467 14.9318 90.479 13.3409 91.1438 12C91.8086 10.6591 92.7205 9.625 93.8796 8.89773C95.0387 8.17045 96.3626 7.80682 97.8512 7.80682C98.7319 7.80682 99.5586 7.93466 100.331 8.19034C101.11 8.44602 101.811 8.82102 102.436 9.31534C103.061 9.80398 103.584 10.4006 104.005 11.1051C104.425 11.804 104.715 12.6023 104.874 13.5ZM107.335 9.92045V8.04545H120.426V9.92045H114.937V25.5H112.824V9.92045H107.335ZM123.381 25.5V23.9659L129.142 17.6591C129.819 16.9205 130.375 16.2784 130.813 15.733C131.25 15.1818 131.574 14.6648 131.784 14.1818C132 13.6932 132.108 13.1818 132.108 12.6477C132.108 12.0341 131.961 11.5028 131.665 11.054C131.375 10.6051 130.978 10.2585 130.472 10.0142C129.966 9.76989 129.398 9.64773 128.767 9.64773C128.097 9.64773 127.512 9.78693 127.012 10.0653C126.517 10.3381 126.134 10.7216 125.861 11.2159C125.594 11.7102 125.461 12.2898 125.461 12.9545H123.449C123.449 11.9318 123.685 11.0341 124.157 10.2614C124.628 9.48864 125.27 8.88636 126.083 8.45454C126.901 8.02273 127.819 7.80682 128.836 7.80682C129.858 7.80682 130.765 8.02273 131.554 8.45454C132.344 8.88636 132.963 9.46875 133.412 10.2017C133.861 10.9347 134.086 11.75 134.086 12.6477C134.086 13.2898 133.969 13.9176 133.736 14.5312C133.509 15.1392 133.111 15.8182 132.543 16.5682C131.98 17.3125 131.199 18.2216 130.199 19.2955L126.279 23.4886V23.625H134.392V25.5H123.381ZM137.912 25.5V23.9659L143.674 17.6591C144.35 16.9205 144.907 16.2784 145.344 15.733C145.782 15.1818 146.105 14.6648 146.316 14.1818C146.532 13.6932 146.64 13.1818 146.64 12.6477C146.64 12.0341 146.492 11.5028 146.196 11.054C145.907 10.6051 145.509 10.2585 145.003 10.0142C144.498 9.76989 143.929 9.64773 143.299 9.64773C142.628 9.64773 142.043 9.78693 141.543 10.0653C141.049 10.3381 140.665 10.7216 140.392 11.2159C140.125 11.7102 139.992 12.2898 139.992 12.9545H137.98C137.98 11.9318 138.216 11.0341 138.688 10.2614C139.159 9.48864 139.801 8.88636 140.614 8.45454C141.432 8.02273 142.35 7.80682 143.367 7.80682C144.39 7.80682 145.296 8.02273 146.086 8.45454C146.875 8.88636 147.495 9.46875 147.944 10.2017C148.392 10.9347 148.617 11.75 148.617 12.6477C148.617 13.2898 148.5 13.9176 148.267 14.5312C148.04 15.1392 147.642 15.8182 147.074 16.5682C146.512 17.3125 145.73 18.2216 144.73 19.2955L140.81 23.4886V23.625H148.924V25.5H137.912ZM158.137 25.7386C156.853 25.7386 155.759 25.3892 154.855 24.6903C153.952 23.9858 153.262 22.9659 152.784 21.6307C152.307 20.2898 152.069 18.6705 152.069 16.7727C152.069 14.8864 152.307 13.2756 152.784 11.9403C153.267 10.5994 153.961 9.5767 154.864 8.87216C155.773 8.16193 156.864 7.80682 158.137 7.80682C159.409 7.80682 160.498 8.16193 161.401 8.87216C162.31 9.5767 163.003 10.5994 163.48 11.9403C163.963 13.2756 164.205 14.8864 164.205 16.7727C164.205 18.6705 163.966 20.2898 163.489 21.6307C163.012 22.9659 162.321 23.9858 161.418 24.6903C160.515 25.3892 159.421 25.7386 158.137 25.7386ZM158.137 23.8636C159.409 23.8636 160.398 23.25 161.103 22.0227C161.807 20.7955 162.159 19.0455 162.159 16.7727C162.159 15.2614 161.998 13.9744 161.674 12.9119C161.355 11.8494 160.895 11.0398 160.293 10.483C159.696 9.92614 158.978 9.64773 158.137 9.64773C156.875 9.64773 155.89 10.2699 155.179 11.5142C154.469 12.7528 154.114 14.5057 154.114 16.7727C154.114 18.2841 154.273 19.5682 154.591 20.625C154.909 21.6818 155.367 22.4858 155.963 23.0369C156.566 23.5881 157.29 23.8636 158.137 23.8636ZM168.466 8.04545L173.648 22.7386H173.853L179.034 8.04545H181.25L174.841 25.5H172.659L166.25 8.04545H168.466Z" fill="black"/>
<rect x="0.5" y="1" width="187" height="32" stroke="black"/>
</svg>
