<svg width="125" height="136" viewBox="0 0 125 136" fill="none" xmlns="http://www.w3.org/2000/svg">
<path d="M46.3793 19H43.2088C43.0213 18.0881 42.6932 17.2869 42.2244 16.5966C41.7642 15.9062 41.2017 15.3267 40.5369 14.858C39.8807 14.3807 39.152 14.0227 38.3509 13.7841C37.5497 13.5455 36.7145 13.4261 35.8452 13.4261C34.2599 13.4261 32.8239 13.8267 31.5369 14.6278C30.2585 15.429 29.2401 16.6094 28.4815 18.169C27.7315 19.7287 27.3565 21.642 27.3565 23.9091C27.3565 26.1761 27.7315 28.0895 28.4815 29.6491C29.2401 31.2088 30.2585 32.3892 31.5369 33.1903C32.8239 33.9915 34.2599 34.392 35.8452 34.392C36.7145 34.392 37.5497 34.2727 38.3509 34.0341C39.152 33.7955 39.8807 33.4418 40.5369 32.973C41.2017 32.4957 41.7642 31.9119 42.2244 31.2216C42.6932 30.5227 43.0213 29.7216 43.2088 28.8182H46.3793C46.1406 30.1562 45.706 31.3537 45.0753 32.4105C44.4446 33.4673 43.6605 34.3665 42.723 35.108C41.7855 35.8409 40.733 36.3991 39.5653 36.7827C38.4063 37.1662 37.1662 37.358 35.8452 37.358C33.6122 37.358 31.6264 36.8125 29.8878 35.7216C28.1491 34.6307 26.7813 33.0795 25.7841 31.0682C24.7869 29.0568 24.2884 26.6705 24.2884 23.9091C24.2884 21.1477 24.7869 18.7614 25.7841 16.75C26.7813 14.7386 28.1491 13.1875 29.8878 12.0966C31.6264 11.0057 33.6122 10.4602 35.8452 10.4602C37.1662 10.4602 38.4063 10.652 39.5653 11.0355C40.733 11.419 41.7855 11.9815 42.723 12.723C43.6605 13.456 44.4446 14.3509 45.0753 15.4077C45.706 16.456 46.1406 17.6534 46.3793 19ZM73.5934 23.9091C73.5934 26.6705 73.0948 29.0568 72.0977 31.0682C71.1005 33.0795 69.7326 34.6307 67.994 35.7216C66.2553 36.8125 64.2695 37.358 62.0366 37.358C59.8036 37.358 57.8178 36.8125 56.0792 35.7216C54.3406 34.6307 52.9727 33.0795 51.9755 31.0682C50.9783 29.0568 50.4798 26.6705 50.4798 23.9091C50.4798 21.1477 50.9783 18.7614 51.9755 16.75C52.9727 14.7386 54.3406 13.1875 56.0792 12.0966C57.8178 11.0057 59.8036 10.4602 62.0366 10.4602C64.2695 10.4602 66.2553 11.0057 67.994 12.0966C69.7326 13.1875 71.1005 14.7386 72.0977 16.75C73.0948 18.7614 73.5934 21.1477 73.5934 23.9091ZM70.5252 23.9091C70.5252 21.642 70.146 19.7287 69.3874 18.169C68.6374 16.6094 67.619 15.429 66.332 14.6278C65.0536 13.8267 63.6218 13.4261 62.0366 13.4261C60.4513 13.4261 59.0153 13.8267 57.7283 14.6278C56.4499 15.429 55.4315 16.6094 54.6729 18.169C53.9229 19.7287 53.5479 21.642 53.5479 23.9091C53.5479 26.1761 53.9229 28.0895 54.6729 29.6491C55.4315 31.2088 56.4499 32.3892 57.7283 33.1903C59.0153 33.9915 60.4513 34.392 62.0366 34.392C63.6218 34.392 65.0536 33.9915 66.332 33.1903C67.619 32.3892 68.6374 31.2088 69.3874 29.6491C70.146 28.0895 70.5252 26.1761 70.5252 23.9091ZM99.6857 10.8182V37H96.6175L82.3505 16.4432H82.0948V37H78.9244V10.8182H81.9925L96.3107 31.4261H96.5664V10.8182H99.6857ZM18.0257 57.6307V54.8182H37.6621V57.6307H29.4292V81H26.2587V57.6307H18.0257ZM40.5705 81H37.2466L46.8603 54.8182H50.133L59.7466 81H56.4228L48.5989 58.9602H48.3944L40.5705 81ZM41.7978 70.7727H55.1955V73.5852H41.7978V70.7727ZM83.6625 63H80.492C80.3045 62.0881 79.9764 61.2869 79.5076 60.5966C79.0474 59.9062 78.4849 59.3267 77.8201 58.858C77.1639 58.3807 76.4352 58.0227 75.6341 57.7841C74.8329 57.5455 73.9977 57.4261 73.1284 57.4261C71.5431 57.4261 70.1071 57.8267 68.8201 58.6278C67.5417 59.429 66.5233 60.6094 65.7647 62.169C65.0147 63.7287 64.6397 65.642 64.6397 67.9091C64.6397 70.1761 65.0147 72.0895 65.7647 73.6491C66.5233 75.2088 67.5417 76.3892 68.8201 77.1903C70.1071 77.9915 71.5431 78.392 73.1284 78.392C73.9977 78.392 74.8329 78.2727 75.6341 78.0341C76.4352 77.7955 77.1639 77.4418 77.8201 76.973C78.4849 76.4957 79.0474 75.9119 79.5076 75.2216C79.9764 74.5227 80.3045 73.7216 80.492 72.8182H83.6625C83.4238 74.1562 82.9892 75.3537 82.3585 76.4105C81.7278 77.4673 80.9437 78.3665 80.0062 79.108C79.0687 79.8409 78.0162 80.3991 76.8485 80.7827C75.6895 81.1662 74.4494 81.358 73.1284 81.358C70.8954 81.358 68.9096 80.8125 67.171 79.7216C65.4324 78.6307 64.0645 77.0795 63.0673 75.0682C62.0701 73.0568 61.5716 70.6705 61.5716 67.9091C61.5716 65.1477 62.0701 62.7614 63.0673 60.75C64.0645 58.7386 65.4324 57.1875 67.171 56.0966C68.9096 55.0057 70.8954 54.4602 73.1284 54.4602C74.4494 54.4602 75.6895 54.652 76.8485 55.0355C78.0162 55.419 79.0687 55.9815 80.0062 56.723C80.9437 57.456 81.7278 58.3509 82.3585 59.4077C82.9892 60.456 83.4238 61.6534 83.6625 63ZM87.3539 57.6307V54.8182H106.99V57.6307H98.7573V81H95.5868V57.6307H87.3539ZM19.9993 125V122.699L28.6413 113.239C29.6555 112.131 30.4908 111.168 31.147 110.349C31.8033 109.523 32.2891 108.747 32.6044 108.023C32.9283 107.29 33.0902 106.523 33.0902 105.722C33.0902 104.801 32.8686 104.004 32.4254 103.331C31.9908 102.658 31.3942 102.138 30.6357 101.771C29.8771 101.405 29.0249 101.222 28.0788 101.222C27.0732 101.222 26.1953 101.43 25.4453 101.848C24.7038 102.257 24.1286 102.832 23.7195 103.574C23.3189 104.315 23.1186 105.185 23.1186 106.182H20.1016C20.1016 104.648 20.4553 103.301 21.1626 102.142C21.87 100.983 22.8331 100.08 24.0518 99.4318C25.2791 98.7841 26.6555 98.4602 28.1811 98.4602C29.7152 98.4602 31.0746 98.7841 32.2592 99.4318C33.4439 100.08 34.3729 100.953 35.0462 102.053C35.7195 103.152 36.0561 104.375 36.0561 105.722C36.0561 106.685 35.8814 107.626 35.532 108.547C35.1911 109.459 34.5945 110.477 33.7422 111.602C32.8984 112.719 31.7266 114.082 30.2266 115.693L24.3459 121.983V122.188H36.5163V125H19.9993ZM41.7962 125V122.699L50.4382 113.239C51.4524 112.131 52.2876 111.168 52.9439 110.349C53.6001 109.523 54.0859 108.747 54.4013 108.023C54.7251 107.29 54.8871 106.523 54.8871 105.722C54.8871 104.801 54.6655 104.004 54.2223 103.331C53.7876 102.658 53.1911 102.138 52.4325 101.771C51.674 101.405 50.8217 101.222 49.8757 101.222C48.87 101.222 47.9922 101.43 47.2422 101.848C46.5007 102.257 45.9254 102.832 45.5163 103.574C45.1158 104.315 44.9155 105.185 44.9155 106.182H41.8984C41.8984 104.648 42.2521 103.301 42.9595 102.142C43.6669 100.983 44.63 100.08 45.8487 99.4318C47.076 98.7841 48.4524 98.4602 49.978 98.4602C51.5121 98.4602 52.8714 98.7841 54.0561 99.4318C55.2408 100.08 56.1697 100.953 56.843 102.053C57.5163 103.152 57.853 104.375 57.853 105.722C57.853 106.685 57.6783 107.626 57.3288 108.547C56.9879 109.459 56.3913 110.477 55.5391 111.602C54.6953 112.719 53.5234 114.082 52.0234 115.693L46.1428 121.983V122.188H58.3132V125H41.7962ZM72.1328 125.358C70.2067 125.358 68.5661 124.834 67.2109 123.786C65.8558 122.729 64.8203 121.199 64.1044 119.196C63.3885 117.185 63.0305 114.756 63.0305 111.909C63.0305 109.08 63.3885 106.663 64.1044 104.661C64.8288 102.649 65.8686 101.115 67.2237 100.058C68.5874 98.9929 70.2237 98.4602 72.1328 98.4602C74.0419 98.4602 75.674 98.9929 77.0291 100.058C78.3928 101.115 79.4325 102.649 80.1484 104.661C80.8729 106.663 81.2351 109.08 81.2351 111.909C81.2351 114.756 80.8771 117.185 80.1612 119.196C79.4453 121.199 78.4098 122.729 77.0547 123.786C75.6996 124.834 74.0589 125.358 72.1328 125.358ZM72.1328 122.545C74.0419 122.545 75.5249 121.625 76.5817 119.784C77.6385 117.943 78.1669 115.318 78.1669 111.909C78.1669 109.642 77.924 107.712 77.4382 106.118C76.9609 104.524 76.2706 103.31 75.3672 102.474C74.4723 101.639 73.3942 101.222 72.1328 101.222C70.2408 101.222 68.7621 102.155 67.6967 104.021C66.6314 105.879 66.0987 108.509 66.0987 111.909C66.0987 114.176 66.3374 116.102 66.8146 117.688C67.2919 119.273 67.978 120.479 68.8729 121.305C69.7763 122.132 70.8629 122.545 72.1328 122.545ZM87.6271 98.8182L95.3999 120.858H95.7067L103.479 98.8182H106.803L97.1896 125H93.9169L84.3033 98.8182H87.6271Z" fill="black"/>
<rect x="1" y="1" width="123" height="134" stroke="black" stroke-width="2"/>
</svg>
