<svg width="60" height="61" viewBox="0 0 60 61" fill="none" xmlns="http://www.w3.org/2000/svg">
<rect y="0.5" width="60" height="60" rx="9.54545" fill="white"/>
<path d="M47.2889 35.4185C48.9328 32.8405 49.8036 29.8454 49.7982 26.7879C49.7982 17.9035 42.5967 10.702 33.7124 10.702C30.5361 10.702 27.575 11.6226 25.0817 13.2102C23.4224 13.3032 21.78 13.5932 20.1891 14.0739C21.3984 12.7883 22.7841 11.6809 24.3046 10.7849C27.1369 9.11602 30.3632 8.2331 33.6505 8.22726H33.7124C43.9628 8.22726 52.273 16.5375 52.273 26.7879C52.273 26.9549 52.2705 27.1207 52.2668 27.2865L52.2643 27.3459C52.1758 30.4638 51.2989 33.5084 49.7153 36.1956C48.8194 37.7162 47.712 39.1019 46.4264 40.3111C46.8978 38.7483 47.1936 37.11 47.2889 35.4185Z" fill="#FD7621"/>
<path fill-rule="evenodd" clip-rule="evenodd" d="M32.1929 28.8503C31.8516 27.8852 31.2195 27.0496 30.3836 26.4586C29.5477 25.8676 28.5492 25.5502 27.5255 25.5502V24.3128H25.0508V25.5502C23.7381 25.5502 22.4792 26.0717 21.551 26.9999C20.6228 27.9281 20.1013 29.187 20.1013 30.4997C20.1013 31.8124 20.6228 33.0713 21.551 33.9995C22.4792 34.9277 23.7381 35.4492 25.0508 35.4492V40.3987C23.9743 40.3987 23.0574 39.712 22.7159 38.7493C22.6652 38.5918 22.5835 38.446 22.4755 38.3207C22.3675 38.1953 22.2355 38.0929 22.0872 38.0194C21.939 37.946 21.7775 37.903 21.6123 37.8931C21.4472 37.8831 21.2817 37.9064 21.1257 37.9615C20.9697 38.0166 20.8264 38.1025 20.7041 38.214C20.5819 38.3255 20.4832 38.4603 20.414 38.6106C20.3448 38.7609 20.3065 38.9235 20.3012 39.0889C20.2959 39.2543 20.3239 39.419 20.3834 39.5734C20.7247 40.5385 21.3568 41.3741 22.1927 41.9651C23.0286 42.5561 24.0271 42.8734 25.0508 42.8734V44.1108H27.5255V42.8734C28.8382 42.8734 30.0971 42.352 31.0254 41.4238C31.9536 40.4956 32.475 39.2366 32.475 37.9239C32.475 36.6113 31.9536 35.3523 31.0254 34.4241C30.0971 33.4959 28.8382 32.9745 27.5255 32.9745V28.025C28.602 28.025 29.5189 28.7117 29.8605 29.6744C29.9111 29.8319 29.9929 29.9776 30.1008 30.103C30.2088 30.2283 30.3408 30.3308 30.4891 30.4042C30.6373 30.4776 30.7988 30.5206 30.964 30.5306C31.1291 30.5405 31.2946 30.5172 31.4506 30.4621C31.6066 30.407 31.7499 30.3212 31.8722 30.2097C31.9944 30.0982 32.0931 29.9633 32.1623 29.813C32.2315 29.6628 32.2699 29.5001 32.2751 29.3348C32.2804 29.1694 32.2524 29.0047 32.1929 28.8503ZM25.0508 28.025C24.3944 28.025 23.765 28.2857 23.3009 28.7498C22.8368 29.2139 22.576 29.8434 22.576 30.4997C22.576 31.156 22.8368 31.7855 23.3009 32.2496C23.765 32.7137 24.3944 32.9745 25.0508 32.9745V28.025ZM27.5255 40.3987C28.1819 40.3987 28.8113 40.138 29.2754 39.6739C29.7395 39.2098 30.0003 38.5803 30.0003 37.9239C30.0003 37.2676 29.7395 36.6381 29.2754 36.174C28.8113 35.7099 28.1819 35.4492 27.5255 35.4492V40.3987Z" fill="#FD7621"/>
<path fill-rule="evenodd" clip-rule="evenodd" d="M44.8482 34.2121C44.8482 44.4625 36.538 52.7727 26.2876 52.7727C16.0372 52.7727 7.72701 44.4625 7.72701 34.2121C7.72701 23.9617 16.0372 15.6515 26.2876 15.6515C36.538 15.6515 44.8482 23.9617 44.8482 34.2121ZM42.3735 34.2121C42.3735 43.0965 35.172 50.298 26.2876 50.298C17.4033 50.298 10.2018 43.0965 10.2018 34.2121C10.2018 25.3278 17.4033 18.1263 26.2876 18.1263C35.172 18.1263 42.3735 25.3278 42.3735 34.2121Z" fill="#FD7621"/>
</svg>
