<svg width="60" height="61" viewBox="0 0 60 61" fill="none" xmlns="http://www.w3.org/2000/svg">
<rect y="0.5" width="60" height="60" rx="9.54545" fill="white"/>
<path d="M47.1429 18.2558H14.4898C13.9485 18.2558 13.4294 18.0169 13.0467 17.5917C12.664 17.1665 12.449 16.5897 12.449 15.9884C12.449 15.387 12.664 14.8103 13.0467 14.385C13.4294 13.9598 13.9485 13.7209 14.4898 13.7209H42.2449C42.5697 13.7209 42.8811 13.5776 43.1107 13.3225C43.3404 13.0673 43.4694 12.7213 43.4694 12.3605C43.4694 11.9996 43.3404 11.6536 43.1107 11.3985C42.8811 11.1433 42.5697 11 42.2449 11H14.4898C13.3007 11.006 12.1618 11.5334 11.321 12.4677C10.4801 13.4019 10.0054 14.6672 10 15.9884V45.0116C10.0054 46.3328 10.4801 47.5981 11.321 48.5323C12.1618 49.4666 13.3007 49.994 14.4898 50H47.1429C47.9006 50 48.6273 49.6656 49.1632 49.0702C49.699 48.4749 50 47.6675 50 46.8256V21.4302C50 20.5883 49.699 19.7809 49.1632 19.1856C48.6273 18.5903 47.9006 18.2558 47.1429 18.2558ZM47.551 46.8256C47.551 46.9459 47.508 47.0612 47.4315 47.1462C47.3549 47.2313 47.2511 47.2791 47.1429 47.2791H14.4898C13.9485 47.2791 13.4294 47.0402 13.0467 46.615C12.664 46.1897 12.449 45.613 12.449 45.0116V20.4326C13.0818 20.7881 13.7807 20.9745 14.4898 20.9767H47.1429C47.2511 20.9767 47.3549 21.0245 47.4315 21.1096C47.508 21.1946 47.551 21.31 47.551 21.4302V46.8256ZM41.8367 34.1279C41.8367 34.5764 41.717 35.0148 41.4928 35.3876C41.2685 35.7605 40.9498 36.0511 40.5769 36.2228C40.204 36.3944 39.7937 36.4393 39.3978 36.3518C39.0019 36.2643 38.6383 36.0483 38.3528 35.7312C38.0674 35.4141 37.8731 35.0101 37.7943 34.5703C37.7156 34.1304 37.756 33.6745 37.9104 33.2602C38.0649 32.8459 38.3265 32.4917 38.6621 32.2426C38.9977 31.9934 39.3923 31.8605 39.7959 31.8605C40.3372 31.8605 40.8563 32.0994 41.239 32.5246C41.6217 32.9498 41.8367 33.5265 41.8367 34.1279Z" fill="#FD7621"/>
</svg>
