<svg width="60" height="61" viewBox="0 0 60 61" fill="none" xmlns="http://www.w3.org/2000/svg">
<rect y="0.5" width="60" height="60" rx="8.4375" fill="white"/>
<path d="M46.9257 43.4675V31.6672C46.9255 31.4445 46.8693 31.2253 46.7623 31.03C46.6685 30.8745 46.528 30.7527 46.3608 30.6821C46.1856 30.6084 46.0009 30.5597 45.8122 30.5374C45.6132 30.5126 45.4128 30.5001 45.2123 30.5001H44.5913V19.1013C44.6637 18.9426 44.7687 18.7558 44.9018 18.5364C45.0348 18.3169 45.1632 18.0742 45.2846 17.8081C45.406 17.5396 45.5157 17.2898 45.6114 17.0611C45.6963 16.8831 45.7462 16.6906 45.7585 16.4938C45.724 16.2408 45.6694 15.9911 45.5951 15.7468C45.4863 15.359 45.3641 14.9752 45.2286 14.596C45.0908 14.2061 44.9507 13.817 44.8084 13.4288C44.7094 13.1649 44.6191 12.8979 44.5376 12.6281C44.4486 12.3964 44.2966 12.1943 44.0988 12.0445C43.9045 11.8985 43.6671 11.8213 43.4241 11.8251H38.7554C38.506 11.8354 38.2651 11.9181 38.0621 12.0632C37.8625 12.1989 37.7145 12.3979 37.6419 12.6281C37.5491 12.9028 37.4518 13.1759 37.3501 13.4474C37.2096 13.8339 37.0765 14.223 36.9509 14.6146C36.8155 15.0278 36.6941 15.4107 36.5844 15.7655C36.4747 16.1156 36.421 16.3607 36.421 16.4938C36.421 16.6642 36.4677 16.858 36.5681 17.0774C36.6638 17.2968 36.7782 17.5396 36.9135 17.8081C37.1306 18.2432 37.3555 18.6743 37.5882 19.1013V30.5001H36.9672C36.7604 30.499 36.5538 30.5115 36.3486 30.5374C36.1578 30.5601 35.9722 30.6154 35.8001 30.7008C35.6389 30.7789 35.5012 30.898 35.4009 31.0463C35.2923 31.2345 35.2412 31.4503 35.2538 31.6672V43.4675C35.2538 44.2565 35.4125 44.9989 35.7277 45.6922C36.0452 46.3855 36.47 46.9924 37.0046 47.5153C38.0956 48.5834 39.5629 49.1796 41.0897 49.1751C41.8671 49.1751 42.6094 49.0233 43.3144 48.7199C44.0027 48.4266 44.6329 48.0123 45.1749 47.4966C45.7138 46.9839 46.1476 46.371 46.4518 45.6922C46.7689 44.9937 46.9306 44.2346 46.9257 43.4675ZM42.2569 30.5001H39.9226V18.8282C39.9222 18.6439 39.8782 18.4623 39.7942 18.2983L38.8464 16.4028L39.5934 14.1594H42.5861L43.3331 16.4004L42.3853 18.2983C42.3013 18.4623 42.2573 18.6439 42.2569 18.8282V30.5001ZM37.5882 35.1688V32.8344H44.5913V35.1688H37.5882ZM44.5913 37.5032V43.3391C44.6024 43.8036 44.509 44.2647 44.3182 44.6884C44.1352 45.1099 43.8756 45.4938 43.5525 45.8206C42.8978 46.4714 42.0129 46.8379 41.0897 46.8407C40.6252 46.8525 40.1639 46.7591 39.7405 46.5676C39.1041 46.3005 38.5606 45.8519 38.1778 45.2777C37.795 44.7035 37.5899 44.0292 37.5882 43.3391V37.5032H44.5913ZM21.2476 13.0903C21.2478 12.8989 21.201 12.7104 21.1113 12.5414C21.0216 12.3724 20.8917 12.228 20.733 12.121C20.5743 12.014 20.3918 11.9476 20.2015 11.9278C20.0111 11.9079 19.8188 11.9352 19.6415 12.0071C17.7642 12.7664 16.1464 14.0521 14.9826 15.7093C13.8188 17.3665 13.1588 19.3247 13.0818 21.3483C13.0049 23.3719 13.5143 25.3746 14.5489 27.1154C15.5834 28.8562 17.099 30.261 18.9132 31.1607V44.5063C18.9132 45.7445 19.4051 46.932 20.2806 47.8076C21.1562 48.6832 22.3437 49.1751 23.5819 49.1751C24.8202 49.1751 26.0077 48.6832 26.8832 47.8076C27.7588 46.932 28.2507 45.7445 28.2507 44.5063V31.163C30.0657 30.264 31.5822 28.8595 32.6174 27.1186C33.6526 25.3776 34.1624 23.3745 34.0854 21.3505C34.0085 19.3265 33.348 17.3679 32.1836 15.7106C31.0191 14.0533 29.4004 12.768 27.5224 12.0095C27.345 11.9375 27.1527 11.9103 26.9624 11.9301C26.7721 11.95 26.5895 12.0163 26.4309 12.1233C26.2722 12.2303 26.1423 12.3747 26.0526 12.5437C25.9628 12.7128 25.916 12.9012 25.9163 13.0926V21.1626C25.9163 21.7817 25.6704 22.3754 25.2326 22.8132C24.7948 23.251 24.201 23.4969 23.5819 23.4969C22.9628 23.4969 22.3691 23.251 21.9313 22.8132C21.4935 22.3754 21.2476 21.7817 21.2476 21.1626V13.0903ZM15.4116 21.7508C15.4116 18.9729 16.7959 16.5218 18.9132 15.0418V21.1579C18.9132 22.3961 19.4051 23.5836 20.2806 24.4592C21.1562 25.3347 22.3437 25.8266 23.5819 25.8266C24.8202 25.8266 26.0077 25.3347 26.8832 24.4592C27.7588 23.5836 28.2507 22.3961 28.2507 21.1579V15.0418C29.4592 15.8832 30.418 17.0355 31.0256 18.3769C31.6333 19.7183 31.8672 21.1989 31.7026 22.6623C31.5381 24.1256 30.9812 25.5173 30.0909 26.6903C29.2006 27.8633 28.0099 28.7739 26.6446 29.3259C26.4295 29.4132 26.2453 29.5626 26.1156 29.7551C25.9858 29.9477 25.9165 30.1745 25.9163 30.4067V44.5063C25.9163 45.1254 25.6704 45.7192 25.2326 46.157C24.7948 46.5947 24.201 46.8407 23.5819 46.8407C22.9628 46.8407 22.3691 46.5947 21.9313 46.157C21.4935 45.7192 21.2476 45.1254 21.2476 44.5063V30.4067C21.2474 30.1745 21.178 29.9477 21.0483 29.7551C20.9186 29.5626 20.7344 29.4132 20.5192 29.3259C19.0096 28.7151 17.7168 27.6673 16.8068 26.3168C15.8967 24.9663 15.4109 23.3747 15.4116 21.7461V21.7508Z" fill="#FD7621"/>
</svg>
