<svg width="60" height="61" viewBox="0 0 60 61" fill="none" xmlns="http://www.w3.org/2000/svg">
<rect y="0.5" width="60" height="60" rx="8.4375" fill="white"/>
<path d="M16 35.496C17.3448 35.4957 18.6483 35.9931 19.6901 36.9041C20.7318 37.8151 21.4477 39.0836 21.7167 40.4951H38.1667V15.4996H12.5C11.2623 15.4996 10.0753 16.0262 9.20017 16.9638C8.325 17.9013 7.83333 19.1728 7.83333 20.4987V40.4951H10.2833C10.5523 39.0836 11.2682 37.8151 12.3099 36.9041C13.3517 35.9931 14.6552 35.4957 16 35.496ZM16 47.9937C14.6552 47.994 13.3517 47.4966 12.3099 46.5856C11.2682 45.6746 10.5523 44.4061 10.2833 42.9946H5.5V20.4987C5.5 18.5099 6.2375 16.6026 7.55025 15.1963C8.86301 13.79 10.6435 13 12.5 13H38.1667C38.7855 13 39.379 13.2633 39.8166 13.7321C40.2542 14.2009 40.5 14.8366 40.5 15.4996V20.4987H47.5L54.5 30.4969V42.9946H49.7167C49.4489 44.4072 48.7335 45.6772 47.6916 46.5895C46.6498 47.5017 45.3456 48 44 48C42.6544 48 41.3502 47.5017 40.3084 46.5895C39.2665 45.6772 38.5511 44.4072 38.2833 42.9946H21.7167C21.4477 44.4061 20.7318 45.6746 19.6901 46.5856C18.6483 47.4966 17.3448 47.994 16 47.9937ZM16 37.9955C15.0717 37.9955 14.1815 38.3905 13.5251 39.0937C12.8687 39.7968 12.5 40.7505 12.5 41.7449C12.5 42.7392 12.8687 43.6929 13.5251 44.396C14.1815 45.0992 15.0717 45.4942 16 45.4942C16.9283 45.4942 17.8185 45.0992 18.4749 44.396C19.1313 43.6929 19.5 42.7392 19.5 41.7449C19.5 40.7505 19.1313 39.7968 18.4749 39.0937C17.8185 38.3905 16.9283 37.9955 16 37.9955ZM44 35.496C45.3448 35.4957 46.6483 35.9931 47.6901 36.9041C48.7318 37.8151 49.4477 39.0836 49.7167 40.4951H52.1667V31.2967L51.6067 30.4969H40.5V36.7457C41.48 35.9709 42.6933 35.496 44 35.496ZM44 37.9955C43.0717 37.9955 42.1815 38.3905 41.5251 39.0937C40.8687 39.7968 40.5 40.7505 40.5 41.7449C40.5 42.7392 40.8687 43.6929 41.5251 44.396C42.1815 45.0992 43.0717 45.4942 44 45.4942C44.9283 45.4942 45.8185 45.0992 46.4749 44.396C47.1312 43.6929 47.5 42.7392 47.5 41.7449C47.5 40.7505 47.1312 39.7968 46.4749 39.0937C45.8185 38.3905 44.9283 37.9955 44 37.9955ZM40.5 22.9982V27.9973H49.8333L46.3333 22.9982H40.5Z" fill="#FD7621"/>
</svg>
